[img]http://img854.imageshack.us/img854/1185/attackx.jpg[/img]
[code]
Attack.The.Block.2011.DVDRip.XVID.AC3.HQ.Hive-CM8



Thx Hive

CM8 Doing It Right The First Time 


Source: DVDR Legend-RG
thx guys

Encode:
Dvd was good, a bit dark perhaps.
Brightened it up a touch and sharpness, rgb, denoise.
looks nice  -  enjoy!

Video: 720x304 @bitrate 1800 2pass
Audio: English AC3 5.1 @448
Sample: yes included

 
http://www.imdb.com/title/tt1478964/


General
Complete name                    : Attack.The.Block.2011.DVDRip.XVID.AC3.HQ.Hive-CM8.avi
Format                           : AVI
Format/Info                      : Audio Video Interleave
File size                        : 1.33 GiB
Duration                         : 1h 24mn
Overall bit rate                 : 2 257 Kbps
Writing application              : Nandub v1.0rc2
Writing library                  : Nandub build 1853/release

Video
ID                               : 0
Format                           : MPEG-4 Visual
Format profile                   : Advanced Simple@L5
Format settings, BVOP            : 1
Format settings, QPel            : Yes
Format settings, GMC             : No warppoints
Format settings, Matrix          : Default (H.263)
Muxing mode                      : Packed bitstream
Codec ID                         : XVID
Codec ID/Hint                    : XviD
Duration                         : 1h 24mn
Bit rate                         : 1 800 Kbps
Width                            : 720 pixels
Height                           : 304 pixels
Display aspect ratio             : 2.35:1
Frame rate                       : 25.000 fps
Color space                      : YUV
Chroma subsampling               : 4:2:0
Bit depth                        : 8 bits
Scan type                        : Progressive
Compression mode                 : Lossy
Bits/(Pixel*Frame)               : 0.329
Stream size                      : 1.06 GiB (80%)
Writing library                  : XviD 1.2.1 (UTC 2008-12-04)

Audio
ID                               : 1
Format                           : AC-3
Format/Info                      : Audio Coding 3
Mode extension                   : CM (complete main)
Codec ID                         : 2000
Duration                         : 1h 24mn
Bit rate mode                    : Constant
Bit rate                         : 448 Kbps
Channel(s)                       : 6 channels
Channel positions                : Front: L C R, Side: L R, LFE
Sampling rate                    : 48.0 KHz
Bit depth                        : 16 bits
Compression mode                 : Lossy
Stream size                      : 270 MiB (20%)
Alignment                        : Split accross interleaves
Interleave, duration             : 40 ms (1.00 video frame)
Interleave, preload duration     : 500 ms


Plot:
A teen gang in South London defend their block from an alien invasion.


Cast:
Nick Frost      ...     Ron
Jodie Whittaker ...     Sam
Luke Treadaway  ...     Brewis
Terry Notary    ...     The Creature
John Boyega     ...     Moses
[/code]
Screens:
[img]http://img823.imageshack.us/img823/5821/11078530.png[/img]
[img]http://img171.imageshack.us/img171/6494/93218594.png[/img]
[img]http://img841.imageshack.us/img841/5853/48089260.png[/img]
[img]http://img225.imageshack.us/img225/9264/34576258.png[/img]
[img]http://img708.imageshack.us/img708/6190/19973443.png[/img]